<svg xmlns="http://www.w3.org/2000/svg" width="24" height="39" viewBox="0 0 24 39" fill="none">
  <path d="M4.0148 26.4349C6.24748 22.1973 7.29339 21.7908 7.44406 21.8517C7.68461 21.9489 6.65398 23.3952 4.58314 28.1931C0.58766 37.4502 1.09917 38.1666 2.46536 38.1666C4.21544 38.1666 4.00723 36.1991 6.1327 31.0142C6.766 29.4694 7.20179 29.5617 8.29565 29.4512C15.6863 28.7047 18.1702 27.3208 19.6236 19.6752C20.094 17.2003 19.2317 16.8383 16.7016 17.1496C14.7576 17.3887 14.1278 17.3353 14.0538 17.1935C13.7523 16.6153 17.0232 16.4379 19.6366 13.8319C22.5862 10.8908 23.4067 5.08266 23.8251 2.91184C24.3036 0.429332 23.025 0.783553 21.3137 0.9564C17.0978 1.38223 8.74286 3.99796 2.68693 14.0101C0.817133 17.1014 0.0701392 19.7744 0.0732519 21.583C0.0771849 23.8682 2.53647 29.2407 4.0148 26.4349Z" fill="url(#paint0_linear_1_4517)"/>
  <defs>
    <linearGradient id="paint0_linear_1_4517" x1="11.9999" y1="0.833252" x2="11.9999" y2="19.4999" gradientUnits="userSpaceOnUse">
      <stop offset="0.1" stop-color="white" stop-opacity="0.8"/>
      <stop offset="1" stop-color="white"/>
    </linearGradient>
  </defs>
</svg>